<?xml version="1.0" encoding="UTF-8"?>
<svg id="Layer_1" xmlns="http://www.w3.org/2000/svg" version="1.1" viewBox="0 0 1105.48 1206.18">
  <!-- Generator: Adobe Illustrator 29.1.0, SVG Export Plug-In . SVG Version: 2.1.0 Build 142)  -->
  <path d="M757.89,903.96c.52,40.94-52.26,71.1-87.33,50.82-1.91-1.11-6.03-5.34-7.38-5.66-1.17-.28-11.67,2.6-13.3,3.33-4.73,2.1-11.13,10.72-15.52,14.48-21.04,18.03-60.2,39.49-88.54,32.59-3.82-.93-8.56-4.94-10.68-5.39-2.48-.53-12.84,7.65-15.95,9.63s-8.76,3.61-11.24,5.76c-3.15,2.74-7.75,11.49-11.54,15.46-34.74,36.23-96.56,35.44-140.04,17.25-27.94,26.52-74.09,40.51-110.88,25.86-17.13,26.04-46.01,42.66-76.47,48-3.84,28.84-32.15,48.09-59.47,51.79-14.4,32.79-74.39,54.09-99.64,23.56-22.15-26.78-3.54-67.57,20.47-86.41-4.53-27.91,9.48-53.87,33.42-67.74-3.88-30.73,10.59-62.37,35.08-80.83-8.52-11.77-15.66-25.68-19.12-39.87-13.82-56.77,16.8-106.64,58.2-142.29-24.88-83.3,31.93-179.57,119.88-189.4-1.77-30.1,2.65-57.32,18.25-83.26,36.84-61.3,112.12-90.85,173.75-120.25,48.43-94.53,127.8-185.07,237.85-203.15,57.99-9.53,114.27,4.32,171.7.7,31.03-1.96,69.7-15.21,84.49-44.52-7.44-8.85-15.35-16.21-21.4-26.55-45.06-77.05,39.34-144.9,109.89-84.89,72.04,61.28,79.77,173.74,69.41,261.35-1.6,13.48-6.6,31.55-6.94,44.12-.38,14.35,2.99,32.09,3.11,46.96.48,61.92-8.8,110.28-48.07,159.02-14.53,18.04-29.86,26.39-33.85,51.15-14.38,89.15-9.38,168.16-90.81,227.19-28.07,20.35-61.9,32.31-89.45,51.55-13.4,9.36-22.76,22.8-36.95,32.05-12.25,7.98-26.57,14.24-40.91,7.59ZM758.88,395.96c-47.17-6.31-94.18-20.67-135.91,10.58-79.13,59.24-20.83,180.45,23.1,243.73,47.62,68.6,122.92,132.31,128.87,221.15.13,2.01-1.42,8.41.44,8.51,18.46-6.95,29.52-23.91,44.79-35.2,28.86-21.33,64.29-32.79,93.19-56.81,67.41-56.02,61.81-128.52,72.65-207.35,5.62-40.85,31.86-53.1,50.05-85.95,23.97-43.3,17.15-107.37,14.84-155.18-1.02-21.11,3.7-43.67,4.94-64.94,3.48-59.47-1.04-137.17-38.99-186-12.1-15.57-31.18-32.78-51.96-32.53,37.14,25.41,62.79,62.86,72.51,106.98,21.27,96.57-33.08,179.46-120.54,216.48-48.08,20.35-99.33,24.85-150.96,17.54l8.02,6.47c4.29,7.51,20.01,18.62,20.06,27.02.05,7.29-9.16,15.83-13.11,21.98-51.03,79.4-49.36,178.51-18.01,265.14-.76,11.85-11.25,17.02-20.99,9.91-23.45-17.12-54.92-65.94-66.15-92.85-36.23-86.76-3.9-183.08,73.26-234.1l9.91-4.57ZM707.89,925.95c6.49-4.12,14.98-10.24,16.01-18.48,1.48-11.83-4.14-20.02-.3-33.3,4.71-16.3,4.02-23.63-.21-40.23-18.05-70.73-91.63-121.43-137.02-174.98-63.9-75.39-114.91-196.46-39.51-282.54,90.9-103.78,241-15.62,349.05-72.95,60.49-32.1,107.67-117.43,84.97-185.51-1.86-.21-.83,2.1-.7,3.2,1.08,9.59,2.37,13.89.44,24.02-7.61,40.02-51.33,64.45-87.71,73.29-88.82,21.58-180.11-13.76-266.39,29.61-80.48,40.46-164.57,163.74-159.66,255.42,6.07,113.53,119.5,181.73,189.07,256.93,41.26,44.6,77.32,103.21,51.98,165.53ZM879.88,338.96c-39.8,13.33-83.79,13.21-125.54,12.03-38.78-1.09-73.58-6.38-112.64,1.27-81.42,15.96-116.37,83.95-102.5,162.87,9.15,52.04,40.59,99.25,75.19,137.81,1.6-.93-.38-2.24-.91-3.09-27.34-43.94-52.15-92.8-56.59-145.41-6.88-81.59,47.12-148.52,131.53-146.53,58.92,1.39,96.76,20.56,157.98-1.94,11.39-4.19,23.71-9.84,33.48-17.01ZM554.88,974.95c40.35-1.97,90.83-37.16,88.04-81.53-5.24-83.44-116.11-147.3-171.57-199.44-73.49-69.09-101.67-171.24-59.27-265.33.36-.8,1.72-2.1.31-2.69-53.59,26.09-124.89,66.59-129.5,133.5-3.53,51.18,9.23,106.42,43.48,145.5,62.86,71.75,171.39,106.46,217.04,192.96,13.09,24.8,17.63,49.23,11.48,77.02ZM220.87,650.95c-21.68,20.91-38.4,52.72-42.71,82.77-6.68,46.53,34.1,84.32,68.41,109.04,35.63,25.67,74.59,45.22,103.29,79.71,20.45,24.58,38.27,57.27,29.22,90.21l.78,1.75c39.2,13.54,106.65,4.19,102.01-49.97-2.4-28.05-30.24-54.97-49.97-73.03-39.67-36.32-84.94-67.92-125.03-103.97-40.53-36.45-79.61-79.8-86-136.51ZM516.89,980.95c9.39-4.66,12.4-7.62,14.54-17.95,11.59-56.04-48.02-107.67-88.24-136.87-48.59-35.28-102.59-65.2-141.3-112.19,2.45,6.08,6.93,12.3,10.77,17.72,35.62,50.29,93.65,86.72,139.24,127.76,35.26,31.75,69.75,70.13,65,121.51ZM146.38,832.97c-14.16,18.3-29.84,44.45-27.49,68.47,3.58,36.74,57.5,58.78,84.91,76.09,25.12,15.87,48.74,34.78,65.08,59.92,14.88,4.18,58.85-9.38,63.56-24.45,3.94-12.61-11.51-28.37-20.08-36.03-26.52-23.7-62.04-40.05-91.2-60.8-31.36-22.32-57.8-48.12-74.78-83.2ZM111.86,991.96c-1.41-1.16-3.99,3.48-4.79,4.68-19.34,28.71-6.7,68.73,25.55,81.07,20.34,7.78,45.46,1.24,63.17-10.35,4.12-2.69,14.27-10.71,16.06-14.95.72-1.69-1.63-1.98-2.73-2.2-5.44-1.11-11.81-1.34-17.46-2.56-34.01-7.36-64.22-23.13-79.81-55.7ZM70.87,1066.95c-1.09-.99-6.1,4.41-7.02,5.48-17.56,20.45-3.16,51.55,17.72,63.32,20.32,11.45,50.08,4.4,59.3-17.79-25.22-2.48-48.57-15.87-62.82-36.69-2.85-4.17-6.49-9.34-7.19-14.31ZM80.88,1163.96c-17.19-5.75-30.11-18.7-40.5-33.01-5.12,6.81-10.5,13.79-12.8,22.19-10.76,39.28,37.25,29.24,53.3,10.81Z"/>
</svg>